<?xml version="1.0" standalone="no"?><!DOCTYPE svg PUBLIC "-//W3C//DTD SVG 1.1//EN" "http://www.w3.org/Graphics/SVG/1.1/DTD/svg11.dtd"><svg t="1656816868653" class="icon" viewBox="0 0 1024 1024" version="1.1" xmlns="http://www.w3.org/2000/svg" p-id="2278" xmlns:xlink="http://www.w3.org/1999/xlink" width="128" height="128"><defs><style type="text/css">@font-face { font-family: feedback-iconfont; src: url("//at.alicdn.com/t/font_1031158_u69w8yhxdu.woff2?t=1630033759944") format("woff2"), url("//at.alicdn.com/t/font_1031158_u69w8yhxdu.woff?t=1630033759944") format("woff"), url("//at.alicdn.com/t/font_1031158_u69w8yhxdu.ttf?t=1630033759944") format("truetype"); }
</style></defs><path d="M890 567.266c-0.422 3.797-1.266 7.593-2.11 11.812-0.843 5.063-12.234 56.531-62.015 72.985-0.844 0.421-1.688 0.843-2.531 0.843-7.172 2.532-5.485 7.594-4.219 10.547 0.422 0.844 0.422 1.266 0.422 2.11 18.14 48.937-14.344 89.859-17.719 93.656-29.953 37.125-63.703 47.25-92.39 44.718-12.235-18.562-23.625-35.859-32.063-47.671-2.531-3.797-4.64-6.75-6.75-9.282v4.22c0.422 10.124 0.844 25.312 1.266 42.609-6.75-3.375-12.657-6.75-17.72-10.547-16.874-11.391-42.609-47.672-74.671-95.344 1.266 54.422 0.422 106.734-5.484 126.14-7.172 29.11-36.703 76.782-99.563 76.782-9.281 0-19.406-1.266-30.375-3.375-4.64-0.844-56.11-12.235-72.562-61.172-0.422-0.844-0.844-2.11-1.266-2.953-2.531-7.172-7.594-5.485-10.547-4.219-0.422 0-0.844 0.422-1.687 0.422-5.485 2.11-10.97 3.375-16.032 4.219 4.22-22.782 16.032-38.391 16.032-38.391 0.421-0.844 1.265-1.688 1.687-2.531 1.266-1.688 2.11-3.375 3.375-5.063 26.156-36.703 8.438-87.328-35.015-99.14-3.797-0.844-7.172-2.11-10.97-3.375 0 0-18.14-4.22-35.437-18.563-8.437-6.75-16.453-16.031-22.36-28.687 13.923-15.61 30.376-29.953 47.673-42.61-18.14 0.844-36.703 0.422-54.844-1.687 0.422-6.328 1.266-12.657 2.953-19.407 0 0 1.266-6.328 5.063-15.187 6.328-15.188 20.25-37.969 48.515-46.406 0 0 24.469-8.016 16.031-33.75h0.422c-18.14-43.031 13.922-80.578 13.922-80.578 29.531-36.282 60.75-42.188 84.797-38.391 24.047 3.797 40.5 16.453 40.5 16.453l7.594 5.063c3.375 2.53 6.75 4.218 10.125 5.906 35.437 16.453 78.047-1.688 88.594-41.344 0.843-3.797 2.109-7.594 3.375-10.969 0 0 19.406-81.421 110.953-62.015 0 0 48.515 9.281 61.593 53.578 0 0 4.22 12.234 15.61 16.453 4.64 1.688 10.547 2.11 18.14-0.422v0.422c7.172-2.953 14.344-4.64 20.672-5.063-3.375 16.454-10.968 30.797-18.14 40.5-16.875 26.579-41.344 49.782-67.922 69.188 33.328-1.688 67.922 0.844 98.297 10.969 17.718 4.219 42.187 16.875 58.64 40.078-12.234 27.844-4.64 59.906 18.141 78.469z" p-id="2279" fill="#0097ff"></path><path d="M873.125 489.219c-16.453-23.203-40.922-35.86-58.64-40.078-30.798-10.125-64.97-12.657-98.298-10.97 26.157-19.405 51.047-42.608 67.922-69.187 7.172-9.703 14.344-23.625 18.141-40.5 6.75-31.218 0.844-71.296-43.031-106.312-3.797-3.375-44.719-35.438-93.657-17.719-0.843 0-1.687 0.422-2.109 0.422-3.375 1.266-8.015 2.531-10.547-4.219-0.422-1.265-0.843-2.11-1.265-2.953-16.875-48.937-67.922-60.328-72.563-61.172-83.953-18.14-121.5 39.235-129.937 72.985-10.125 30.375-12.657 64.968-10.97 98.718-19.405-26.156-43.03-51.046-69.608-67.921-27.844-20.672-92.813-41.766-146.813 24.89-3.375 3.797-35.86 44.719-17.719 93.656 0 0.844 0.422 1.266 0.422 2.11 1.266 3.375 2.531 8.015-4.219 10.547-1.265 0.421-2.109 0.843-2.953 1.265-48.937 16.875-60.328 67.922-61.172 72.563-17.718 83.953 39.657 121.078 73.407 129.515 13.922 4.641 28.687 7.594 43.875 9.282 18.14 2.109 36.703 2.53 54.843 1.687-16.875 12.656-33.328 27-47.671 42.61-7.594 8.437-14.344 17.296-20.25 26.578-20.672 27.843-41.766 92.812 24.89 146.812 3.375 2.953 36.281 29.11 78.047 21.938 5.063-0.844 10.547-2.11 16.031-4.22 0.422 0 0.844-0.421 1.688-0.421 3.375-1.266 8.015-2.531 10.547 4.219 0.421 1.265 0.843 2.11 1.265 2.953 16.875 48.937 67.922 60.328 72.563 61.172 10.969 2.11 20.672 3.375 30.375 3.375 62.86 0 92.39-47.672 99.562-76.782 5.907-19.406 6.75-71.718 5.485-126.14 31.64 47.672 57.797 83.953 74.672 95.344 4.64 3.797 10.546 7.172 17.718 10.547 10.547 5.062 23.203 8.859 37.125 9.703 28.688 2.109 62.438-7.594 92.39-44.72 3.376-3.796 35.86-45.14 17.72-93.655 0-0.844-0.422-1.266-0.422-2.11-1.266-3.375-2.532-8.015 4.218-10.547 0.844-0.422 1.688-0.422 2.532-0.843 49.781-16.453 61.172-67.922 62.015-72.985 0.844-3.797 1.688-8.015 2.11-11.812 3.797-33.328-4.64-59.063-17.719-77.625z m-19.828 82.265c-0.422 0-0.422 0.422 0 0 0 0.844-7.172 37.125-40.5 47.25-1.266 0.422-2.953 0.844-4.219 1.688-5.906 2.531-15.61 8.437-21.515 20.25-3.375 6.328-6.329 16.453-2.954 29.953 0 1.688 0.422 3.375 1.266 5.063 13.078 31.218-10.125 59.484-10.969 60.75 0 0-0.422 0-0.422 0.421-42.187 52.313-86.906 26.157-96.609 19.407-0.844-0.422-1.266-0.844-1.266-0.844-0.422-0.422-0.843-0.422-1.265-0.844-1.266-0.844-2.11-1.687-3.375-2.953-16.032-14.766-51.047-67.5-70.875-97.031-10.547-16.032-19.828-29.953-25.735-37.547-4.64-6.328-12.656-8.438-20.25-5.906-7.172 2.53-12.234 9.703-11.812 17.297 3.797 91.546 2.953 160.312-2.11 175.5 0 0.421-0.421 0.843-0.421 1.687-1.688 6.328-17.72 62.438-88.172 47.672h-0.422c-0.422 0-37.125-7.172-46.828-40.078-0.422-1.266-0.844-2.532-1.688-3.797-5.906-13.5-20.672-28.688-43.031-26.156l-7.594 1.265c-1.687 0-3.375 0.422-4.64 1.266-31.22 13.078-59.485-9.703-60.75-10.969l-0.422-0.422c-56.11-45.14-22.36-92.812-18.563-98.297 0.422-0.422 0.844-0.843 0.844-1.265 3.797-5.907 8.016-11.813 13.078-17.719 30.375-36.281 77.203-65.39 113.485-83.953 8.015-4.219 11.39-13.5 8.437-21.516-2.953-8.437-11.813-13.078-20.25-11.39-45.984 9.703-88.594 13.078-123.188 9.28-15.187-1.687-28.687-4.218-40.921-8.437-0.422 0-1.266-0.422-1.688-0.422-6.328-1.687-62.437-17.718-47.672-88.171v-0.422c0-0.422 7.172-37.125 40.078-46.828 1.266-0.422 2.532-0.844 3.797-1.688 5.485-2.531 16.031-8.437 21.938-20.25 3.375-6.328 6.328-16.875 2.953-30.375 0-1.687-0.422-3.375-1.266-5.062-13.078-31.22 10.125-59.485 10.969-60.75 0 0 0-0.422 0.422-0.422 45.14-55.688 92.812-22.36 98.297-18.563 0.422 0.422 0.844 0.844 1.265 0.844 25.313 16.031 51.047 43.875 75.094 80.578 9.281 13.922 18.14 29.11 26.578 45.563 4.219 8.015 13.5 11.39 21.516 8.437 8.437-2.953 13.078-11.812 11.39-20.25L482.048 377c-12.656-63.703-12.656-119.813 0.422-157.781 0-0.422 0.422-1.266 0.422-1.688 0.843-2.531 15.609-62.86 88.171-47.672h0.422c0.422 0 37.125 7.172 46.828 40.078 0.422 1.266 0.844 2.532 1.688 3.797 2.531 5.485 8.438 16.032 20.25 21.938 6.328 3.375 16.453 6.328 29.953 2.953 1.688 0 3.797-0.422 5.485-1.266 31.218-13.078 59.484 9.703 60.75 10.547l0.421 0.422c39.657 32.063 34.172 65.39 26.578 83.953-3.375 7.594-6.75 12.656-8.015 13.922-0.422 0.422-0.844 0.844-0.844 1.266-21.937 35.015-66.656 70.875-126.562 101.672-8.016 4.218-11.391 13.5-8.438 21.937 2.953 8.438 11.813 13.078 20.25 11.39 66.235-13.921 124.453-14.343 164.11-0.843 0.421 0 0.843 0.422 1.265 0.422 6.75 2.953 62.86 18.984 48.094 89.437z" p-id="2280" fill="#0097ff"></path></svg>